<svg width="2080" height="1039" viewBox="0 0 2080 1039" fill="none" xmlns="http://www.w3.org/2000/svg">
<path d="M420.77 114.01H39.27C19.2386 114.01 3 130.249 3 150.28V640.86C3 660.891 19.2386 677.13 39.27 677.13H420.77C440.801 677.13 457.04 660.891 457.04 640.86V150.28C457.04 130.249 440.801 114.01 420.77 114.01Z" fill="#F9E451" stroke="black" stroke-width="6" stroke-linecap="round" stroke-linejoin="round"/>
<path d="M315.18 114.01H271.05V677.65H315.18V114.01Z" fill="#1C0E0C"/>
<path d="M1658.95 940.25H2040.45C2060.48 940.25 2076.72 924.011 2076.72 903.98V532.59C2076.72 512.559 2060.48 496.32 2040.45 496.32L1658.95 496.32C1638.92 496.32 1622.68 512.559 1622.68 532.59V903.98C1622.68 924.011 1638.92 940.25 1658.95 940.25Z" fill="#88D0F0" stroke="black" stroke-width="6" stroke-linecap="round" stroke-linejoin="round"/>
<path d="M1764.54 940.66H1808.67V496.32H1764.54V940.66Z" fill="#1C0E0C"/>
<path d="M1725.67 3H350.88C330.379 3 313.76 19.6192 313.76 40.12V997.94C313.76 1018.44 330.379 1035.06 350.88 1035.06H1725.67C1746.17 1035.06 1762.79 1018.44 1762.79 997.94V40.12C1762.79 19.6192 1746.17 3 1725.67 3Z" fill="white" stroke="#070707" stroke-width="6" stroke-linecap="round" stroke-linejoin="round"/>
<path d="M313.76 88.88H1762.79" stroke="#070707" stroke-width="6" stroke-linecap="round" stroke-linejoin="round"/>
<path d="M529.45 38.37H522.11C516.316 38.37 511.62 43.0665 511.62 48.86V56.2C511.62 61.9934 516.316 66.69 522.11 66.69H529.45C535.243 66.69 539.94 61.9934 539.94 56.2V48.86C539.94 43.0665 535.243 38.37 529.45 38.37Z" fill="#FFEFF0"/>
<path d="M481.14 38.37H473.8C468.006 38.37 463.31 43.0665 463.31 48.86V56.2C463.31 61.9934 468.006 66.69 473.8 66.69H481.14C486.933 66.69 491.63 61.9934 491.63 56.2V48.86C491.63 43.0665 486.933 38.37 481.14 38.37Z" fill="#FFEFF0"/>
<path d="M432.83 38.37H425.49C419.697 38.37 415 43.0665 415 48.86V56.2C415 61.9934 419.697 66.69 425.49 66.69H432.83C438.623 66.69 443.32 61.9934 443.32 56.2V48.86C443.32 43.0665 438.623 38.37 432.83 38.37Z" fill="#FFEFF0"/>
<path d="M523.61 33.17H516.27C510.476 33.17 505.78 37.8666 505.78 43.66V51C505.78 56.7935 510.476 61.4901 516.27 61.4901H523.61C529.403 61.4901 534.1 56.7935 534.1 51V43.66C534.1 37.8666 529.403 33.17 523.61 33.17Z" fill="#88D0F0" stroke="black" stroke-width="6" stroke-linecap="round" stroke-linejoin="round"/>
<path d="M475.3 33.17H467.96C462.166 33.17 457.47 37.8666 457.47 43.66V51C457.47 56.7935 462.166 61.4901 467.96 61.4901H475.3C481.093 61.4901 485.79 56.7935 485.79 51V43.66C485.79 37.8666 481.093 33.17 475.3 33.17Z" fill="#F9E451" stroke="black" stroke-width="6" stroke-linecap="round" stroke-linejoin="round"/>
<path d="M426.98 33.17H419.64C413.846 33.17 409.15 37.8666 409.15 43.66V51C409.15 56.7935 413.846 61.4901 419.64 61.4901H426.98C432.773 61.4901 437.47 56.7935 437.47 51V43.66C437.47 37.8666 432.773 33.17 426.98 33.17Z" fill="#F46F40" stroke="black" stroke-width="6" stroke-linecap="round" stroke-linejoin="round"/>
<path d="M1503.92 732.22H589.77C580.044 732.22 572.16 740.104 572.16 749.83V903.67C572.16 913.396 580.044 921.28 589.77 921.28H1503.92C1513.65 921.28 1521.53 913.396 1521.53 903.67V749.83C1521.53 740.104 1513.65 732.22 1503.92 732.22Z" stroke="#070707" stroke-width="6" stroke-linecap="round" stroke-linejoin="round"/>
<path d="M1357.59 784.75H1248.01V869.39H1357.59V784.75Z" fill="#F9E451" stroke="black" stroke-width="6" stroke-linecap="round" stroke-linejoin="round"/>
<path d="M1403.99 869.4H1357.59V805.91H1380.79L1403.99 839.52V869.4Z" fill="white" stroke="#070707" stroke-width="6" stroke-linecap="round" stroke-linejoin="round"/>
<path d="M1365.99 817.66H1377.83L1389.68 834.82H1365.99V817.66Z" fill="white" stroke="#070707" stroke-width="6" stroke-linecap="round" stroke-linejoin="round"/>
<path d="M1280.33 882.12C1286.9 882.12 1292.23 876.792 1292.23 870.22C1292.23 863.648 1286.9 858.32 1280.33 858.32C1273.76 858.32 1268.43 863.648 1268.43 870.22C1268.43 876.792 1273.76 882.12 1280.33 882.12Z" fill="white" stroke="#070707" stroke-width="6" stroke-linecap="round" stroke-linejoin="round"/>
<path d="M1380.63 882.12C1387.2 882.12 1392.53 876.792 1392.53 870.22C1392.53 863.648 1387.2 858.32 1380.63 858.32C1374.06 858.32 1368.73 863.648 1368.73 870.22C1368.73 876.792 1374.06 882.12 1380.63 882.12Z" fill="white" stroke="#070707" stroke-width="6" stroke-linecap="round" stroke-linejoin="round"/>
<path d="M1335.59 805.91H1300.64" stroke="#070707" stroke-width="6" stroke-linecap="round" stroke-linejoin="round"/>
<path d="M1322.98 820.36H1288.04" stroke="#070707" stroke-width="6" stroke-linecap="round" stroke-linejoin="round"/>
<path d="M1335.59 834.82H1300.64" stroke="#070707" stroke-width="6" stroke-linecap="round" stroke-linejoin="round"/>
<path d="M1146.59 881.97C1173.77 881.97 1195.81 859.933 1195.81 832.75C1195.81 805.567 1173.77 783.53 1146.59 783.53C1119.41 783.53 1097.37 805.567 1097.37 832.75C1097.37 859.933 1119.41 881.97 1146.59 881.97Z" fill="white" stroke="#070707" stroke-width="6" stroke-linecap="round" stroke-linejoin="round"/>
<path d="M1146.8 783.68V882.12" stroke="#070707" stroke-width="6" stroke-linecap="round" stroke-linejoin="round"/>
<path d="M1155.5 783.98C1155.5 783.98 1188.31 822.05 1155.5 881.82Z" fill="white"/>
<path d="M1155.5 783.98C1155.5 783.98 1188.31 822.05 1155.5 881.82" stroke="#070707" stroke-width="6" stroke-linecap="round" stroke-linejoin="round"/>
<path d="M1138.09 783.98C1138.09 783.98 1105.28 822.05 1138.09 881.82" stroke="#070707" stroke-width="6" stroke-linecap="round" stroke-linejoin="round"/>
<path d="M1097.58 832.9H1196.02" stroke="#070707" stroke-width="6" stroke-linecap="round" stroke-linejoin="round"/>
<path d="M1116.15 871.41C1116.15 871.41 1145.94 853.51 1176.8 871.41" stroke="#070707" stroke-width="6" stroke-linecap="round" stroke-linejoin="round"/>
<path d="M1116.15 794.61C1116.15 794.61 1145.94 812.51 1176.8 794.61" stroke="#070707" stroke-width="6" stroke-linecap="round" stroke-linejoin="round"/>
<path d="M1004.03 856.93C1023.96 856.93 1040.11 841.573 1040.11 822.63C1040.11 803.687 1023.96 788.33 1004.03 788.33C984.103 788.33 967.95 803.687 967.95 822.63C967.95 841.573 984.103 856.93 1004.03 856.93Z" fill="#FFEFF0"/>
<path d="M997.219 854.21C1017.73 854.21 1034.36 838.406 1034.36 818.91C1034.36 799.414 1017.73 783.61 997.219 783.61C976.708 783.61 960.08 799.414 960.08 818.91C960.08 838.406 976.708 854.21 997.219 854.21Z" fill="#F9E451" stroke="black" stroke-width="6" stroke-linecap="round" stroke-linejoin="round"/>
<path d="M1015.79 801.25C1018.22 803.506 1020.15 806.238 1021.48 809.275C1022.8 812.313 1023.48 815.591 1023.48 818.905C1023.48 822.219 1022.8 825.497 1021.48 828.535C1020.15 831.572 1018.22 834.304 1015.79 836.56" stroke="#070707" stroke-width="6" stroke-linecap="round" stroke-linejoin="round"/>
<path d="M1023.44 856.23L1046.44 880.43C1047.43 881.443 1048.76 882.045 1050.18 882.113C1051.59 882.182 1052.98 881.713 1054.06 880.8V880.8C1054.58 880.361 1055 879.82 1055.31 879.21C1055.61 878.601 1055.79 877.936 1055.82 877.256C1055.86 876.577 1055.76 875.896 1055.53 875.257C1055.29 874.618 1054.93 874.034 1054.46 873.54L1031.46 849.35C1030.47 848.337 1029.14 847.736 1027.72 847.665C1026.31 847.595 1024.92 848.061 1023.84 848.97C1023.32 849.409 1022.89 849.95 1022.59 850.56C1022.29 851.169 1022.11 851.834 1022.07 852.514C1022.04 853.194 1022.14 853.874 1022.37 854.513C1022.61 855.152 1022.97 855.736 1023.44 856.23V856.23Z" fill="#F9E451" stroke="black" stroke-width="6" stroke-linecap="round" stroke-linejoin="round"/>
<path d="M903.029 798.29H833.329C829.662 798.29 826.689 801.263 826.689 804.93V874.63C826.689 878.297 829.662 881.27 833.329 881.27H903.029C906.697 881.27 909.669 878.297 909.669 874.63V804.93C909.669 801.263 906.697 798.29 903.029 798.29Z" fill="#88D0F0" stroke="black" stroke-width="6" stroke-linecap="round" stroke-linejoin="round"/>
<path d="M883.74 798.29H820.26C816.592 798.29 813.62 801.263 813.62 804.93V874.63C813.62 878.297 816.592 881.27 820.26 881.27H883.74C887.407 881.27 890.38 878.297 890.38 874.63V804.93C890.38 801.263 887.407 798.29 883.74 798.29Z" fill="#88D0F0" stroke="black" stroke-width="6" stroke-linecap="round" stroke-linejoin="round"/>
<path d="M853.25 885.78V793.07" stroke="#070707" stroke-width="6" stroke-linecap="round" stroke-linejoin="round"/>
<path d="M809.54 839.58H913.349" stroke="#070707" stroke-width="6" stroke-linecap="round" stroke-linejoin="round"/>
<path d="M865.68 771.66H871.78C875.076 771.66 878.238 772.97 880.569 775.301C882.9 777.632 884.21 780.793 884.21 784.09V785.85C884.21 789.147 882.9 792.308 880.569 794.639C878.238 796.97 875.076 798.28 871.78 798.28H853.25V784.14C853.25 780.843 854.559 777.682 856.89 775.351C859.221 773.02 862.383 771.71 865.68 771.71V771.66Z" stroke="#070707" stroke-width="6" stroke-linecap="round" stroke-linejoin="round"/>
<path d="M853.11 798.3H836.18C833.575 798.3 831.078 797.265 829.236 795.424C827.394 793.582 826.36 791.085 826.36 788.48V787.09C826.36 784.486 827.394 781.988 829.236 780.146C831.078 778.305 833.575 777.27 836.18 777.27H843.32C845.924 777.27 848.422 778.305 850.264 780.146C852.105 781.988 853.14 784.486 853.14 787.09V798.3H853.11Z" stroke="#070707" stroke-width="6" stroke-linecap="round" stroke-linejoin="round"/>
<path d="M868.73 815.29L853.11 798.29L843.55 807.86" stroke="#070707" stroke-width="6" stroke-linecap="round" stroke-linejoin="round"/>
<path d="M708.91 770.89H710.45C713.332 770.89 716.097 772.035 718.136 774.074C720.174 776.112 721.32 778.877 721.32 781.76V796.6H698.04V781.76C698.04 778.877 699.185 776.112 701.223 774.074C703.262 772.035 706.027 770.89 708.91 770.89V770.89Z" stroke="#070707" stroke-width="6" stroke-linecap="round" stroke-linejoin="round"/>
<path d="M700.719 770.89H702.259C705.142 770.89 707.907 772.035 709.946 774.074C711.984 776.112 713.129 778.877 713.129 781.76V796.6H689.859V781.76C689.859 778.877 691.005 776.112 693.043 774.074C695.082 772.035 697.846 770.89 700.729 770.89H700.719Z" stroke="#070707" stroke-width="6" stroke-linecap="round" stroke-linejoin="round"/>
<path d="M745.38 882.12H720.24L730.72 796.55H734.9L745.38 882.12Z" fill="#1C0E0C"/>
<path d="M730.72 796.55L720.24 882.12H660.54L671.01 796.55H730.72Z" fill="#F9E451" stroke="black" stroke-width="6" stroke-linecap="round" stroke-linejoin="round"/>
<path d="M1214.29 383.84H1012.39C1002.66 383.84 994.78 391.724 994.78 401.45V603.35C994.78 613.076 1002.66 620.96 1012.39 620.96H1214.29C1224.02 620.96 1231.9 613.076 1231.9 603.35V401.45C1231.9 391.724 1224.02 383.84 1214.29 383.84Z" fill="#1C0E0C"/>
<path d="M1204.44 373.86H1002.54C992.814 373.86 984.93 381.744 984.93 391.47V593.37C984.93 603.096 992.814 610.98 1002.54 610.98H1204.44C1214.17 610.98 1222.05 603.096 1222.05 593.37V391.47C1222.05 381.744 1214.17 373.86 1204.44 373.86Z" fill="white" stroke="#070707" stroke-width="6" stroke-linecap="round" stroke-linejoin="round"/>
<path d="M1145.47 585.14H1077.99C1071.61 585.14 1065.32 583.701 1059.58 580.931C1053.84 578.16 1048.79 574.129 1044.82 569.138C1040.86 564.148 1038.07 558.326 1036.66 552.107C1035.26 545.888 1035.27 539.432 1036.71 533.22L1050.31 485.1C1050.78 483.064 1051.92 481.247 1053.56 479.945C1055.19 478.643 1057.22 477.933 1059.31 477.93H1164.15C1166.24 477.931 1168.27 478.641 1169.9 479.943C1171.54 481.245 1172.68 483.063 1173.15 485.1L1186.76 533.22C1188.19 539.432 1188.21 545.889 1186.8 552.108C1185.4 558.327 1182.61 564.148 1178.64 569.139C1174.67 574.129 1169.62 578.16 1163.88 580.93C1158.14 583.701 1151.85 585.14 1145.47 585.14V585.14Z" fill="#F9E451"/>
<path d="M1137.32 577.82H1069.84C1063.46 577.82 1057.17 576.381 1051.43 573.61C1045.68 570.84 1040.64 566.809 1036.67 561.819C1032.7 556.828 1029.91 551.007 1028.51 544.788C1027.1 538.569 1027.11 532.112 1028.55 525.9L1042.15 477.78C1042.62 475.746 1043.77 473.931 1045.4 472.631C1047.04 471.331 1049.06 470.622 1051.15 470.62H1155.97C1158.06 470.622 1160.08 471.331 1161.72 472.631C1163.35 473.931 1164.5 475.746 1164.97 477.78L1178.58 525.9C1180.01 532.11 1180.03 538.564 1178.63 544.78C1177.22 550.997 1174.43 556.817 1170.47 561.807C1166.5 566.797 1161.46 570.828 1155.72 573.6C1149.98 576.373 1143.69 577.815 1137.32 577.82Z" stroke="#070707" stroke-width="6" stroke-linecap="round" stroke-linejoin="round"/>
<path d="M1144.43 462.14C1144.43 464.996 1144.21 467.848 1143.78 470.67H1063.38C1062.94 467.848 1062.73 464.996 1062.73 462.14C1062.73 435.8 1081.02 414.44 1103.58 414.44C1126.14 414.44 1144.43 435.75 1144.43 462.14Z" stroke="#070707" stroke-width="6" stroke-linecap="round" stroke-linejoin="round"/>
<path d="M1162.74 473.54C1161.36 504.93 1134.84 529.99 1103.58 529.99C1073.14 529.99 1045.8 504.94 1044.42 473.54C1045.29 472.618 1046.33 471.883 1047.49 471.381C1048.65 470.879 1049.9 470.62 1051.17 470.62H1155.99C1157.25 470.622 1158.5 470.882 1159.67 471.384C1160.83 471.886 1161.87 472.62 1162.74 473.54V473.54Z" stroke="#070707" stroke-width="6" stroke-linecap="round" stroke-linejoin="round"/>
<path d="M1107.65 520.77H1099.5V539.96H1107.65V520.77Z" stroke="#070707" stroke-width="6" stroke-linecap="round" stroke-linejoin="round"/>
<path d="M1175.05 402.99C1189.53 402.99 1201.26 391.255 1201.26 376.78C1201.26 362.305 1189.53 350.57 1175.05 350.57C1160.57 350.57 1148.84 362.305 1148.84 376.78C1148.84 391.255 1160.57 402.99 1175.05 402.99Z" fill="#88D0F0" stroke="black" stroke-width="6" stroke-linecap="round" stroke-linejoin="round"/>
<path d="M1165.4 376.02L1174 388.17L1184.71 365.39" stroke="#070707" stroke-width="6" stroke-linecap="round" stroke-linejoin="round"/>
<path d="M1509.48 225.72H999.43C991.422 225.72 984.93 232.212 984.93 240.22V315.74C984.93 323.748 991.422 330.24 999.43 330.24H1509.48C1517.49 330.24 1523.98 323.748 1523.98 315.74V240.22C1523.98 232.212 1517.49 225.72 1509.48 225.72Z" stroke="#070707" stroke-width="6" stroke-linecap="round" stroke-linejoin="round"/>
<path d="M1143.34 312.54H1069.15C1069.15 312.54 1048.86 279.94 1041.93 279.94C1037.93 279.94 1036.29 312.54 1036.29 312.54H1031.67C1031.67 312.54 1020.87 245.98 1032.84 242.17C1040.64 239.68 1061.76 246.28 1067.57 272.42C1072.46 294.42 1100.64 298.36 1103.77 283.84C1103.79 283.84 1142.02 295.14 1143.34 312.54Z" fill="white" stroke="#070707" stroke-width="6" stroke-linecap="round" stroke-linejoin="round"/>
<path d="M1333.61 296.56C1333.48 298.1 1330.69 305.48 1330.69 305.48L1188.15 300.65V292.65C1188.31 282.316 1190.67 272.135 1195.09 262.79C1198.79 255.07 1203.92 256.99 1203.92 256.99C1203.92 256.99 1217.86 270.62 1233.5 270.62C1234.86 270.609 1236.2 270.241 1237.38 269.554C1238.56 268.866 1239.54 267.882 1240.22 266.7C1241.14 265.26 1241.86 263.698 1242.35 262.06C1243.01 259.931 1243.47 257.744 1243.72 255.53C1243.84 254.594 1244.18 253.701 1244.72 252.925C1245.26 252.15 1245.97 251.515 1246.81 251.075C1247.64 250.634 1248.57 250.401 1249.51 250.395C1250.46 250.389 1251.39 250.61 1252.23 251.04C1258.37 254.19 1265.83 261.26 1285.78 272.04L1288.88 273.69C1313.15 286.49 1333.36 281.74 1333.61 296.56Z" fill="white" stroke="#070707" stroke-width="6" stroke-linecap="round" stroke-linejoin="round"/>
<path d="M1317.58 312.54C1321.71 312.54 1326.75 310.67 1329.45 307.64C1331.13 305.666 1332.34 303.332 1332.98 300.819C1333.62 298.306 1333.68 295.679 1333.15 293.14H1333.04C1332.47 296.164 1330.88 298.901 1328.53 300.893C1326.19 302.884 1323.23 304.009 1320.15 304.08L1196.54 300.46C1194.64 300.4 1192.81 299.752 1191.29 298.606C1189.78 297.459 1188.65 295.871 1188.08 294.06V302.37C1188.08 307.98 1192.16 312.54 1197.19 312.54H1317.58Z" fill="#F9E451" stroke="black" stroke-width="6" stroke-linecap="round" stroke-linejoin="round"/>
<path d="M1291.15 274.91C1260.27 264.35 1244.82 259.57 1242.29 262.1C1242.95 259.971 1243.41 257.784 1243.66 255.57C1243.78 254.634 1244.12 253.741 1244.66 252.965C1245.2 252.19 1245.91 251.555 1246.75 251.115C1247.58 250.674 1248.51 250.441 1249.45 250.435C1250.4 250.429 1251.33 250.65 1252.17 251.08C1258.33 254.23 1268.6 263.62 1291.15 274.91Z" fill="#F9E451" stroke="black" stroke-width="6" stroke-linecap="round" stroke-linejoin="round"/>
<path d="M1257.47 261.01L1263.07 252.49C1263.4 251.992 1263.82 251.565 1264.32 251.236C1264.82 250.907 1265.38 250.683 1265.96 250.577C1266.55 250.472 1267.15 250.487 1267.73 250.621C1268.31 250.756 1268.86 251.007 1269.34 251.36V251.36C1270.2 251.99 1270.8 252.912 1271.03 253.953C1271.27 254.994 1271.11 256.084 1270.6 257.02L1269.85 258.38" stroke="#070707" stroke-width="6" stroke-linecap="round" stroke-linejoin="round"/>
<path d="M1271.87 265.43L1275.97 259.3C1276.26 258.871 1276.64 258.506 1277.09 258.229C1277.53 257.951 1278.02 257.766 1278.53 257.684C1279.05 257.603 1279.57 257.627 1280.08 257.755C1280.58 257.883 1281.06 258.113 1281.47 258.43C1282.22 258.995 1282.74 259.817 1282.92 260.739C1283.11 261.661 1282.95 262.619 1282.47 263.43L1280.99 266.11" stroke="#070707" stroke-width="6" stroke-linecap="round" stroke-linejoin="round"/>
<path d="M1292.54 271.96C1294.18 269.74 1293.78 267.17 1292.14 265.96C1291.7 265.633 1291.19 265.398 1290.66 265.271C1290.12 265.144 1289.57 265.126 1289.03 265.22C1288.48 265.313 1287.97 265.516 1287.5 265.815C1287.04 266.114 1286.65 266.503 1286.34 266.96L1283.83 271.07" stroke="#070707" stroke-width="6" stroke-linecap="round" stroke-linejoin="round"/>
<path d="M1476.73 248.14C1489.11 248.14 1499.15 238.102 1499.15 225.72C1499.15 213.338 1489.11 203.3 1476.73 203.3C1464.35 203.3 1454.31 213.338 1454.31 225.72C1454.31 238.102 1464.35 248.14 1476.73 248.14Z" fill="#F46F40" stroke="black" stroke-width="6" stroke-linecap="round" stroke-linejoin="round"/>
<path d="M1469.36 233.37L1484.1 218.07" stroke="#070707" stroke-width="6" stroke-linecap="round" stroke-linejoin="round"/>
<path d="M1484.1 233.37L1469.36 218.07" stroke="#070707" stroke-width="6" stroke-linecap="round" stroke-linejoin="round"/>
<path d="M1376.51 276.79C1376.51 276.79 1360.56 312.54 1383.75 312.54H1491.63C1491.63 312.54 1495.97 295.03 1467.95 290.54C1464.06 289.92 1452.95 287.78 1452.95 287.78C1452.95 287.78 1456.41 301.78 1431.76 300.68C1407.11 299.58 1395.94 278.55 1376.51 276.79Z" fill="white" stroke="#070707" stroke-width="6" stroke-linecap="round" stroke-linejoin="round"/>
<path d="M949.59 241.68H605.54C595.814 241.68 587.93 249.564 587.93 259.29V603.34C587.93 613.066 595.814 620.95 605.54 620.95H949.59C959.315 620.95 967.2 613.066 967.2 603.34V259.29C967.2 249.564 959.315 241.68 949.59 241.68Z" fill="#1C0E0C"/>
<path d="M933.82 225.72H589.77C580.044 225.72 572.16 233.604 572.16 243.33V587.38C572.16 597.106 580.044 604.99 589.77 604.99H933.82C943.545 604.99 951.43 597.106 951.43 587.38V243.33C951.43 233.604 943.545 225.72 933.82 225.72Z" fill="#F9E451" stroke="black" stroke-width="6" stroke-linecap="round" stroke-linejoin="round"/>
<path d="M902.89 379L852.53 421.65V535.88H684.89V421.65L634.55 379L673.15 330.91C684.86 320.72 702.7 319.12 715.64 319.12H826.46C852.46 319.12 859.05 324.02 865.8 329.33L902.89 379Z" fill="#1C0E0C"/>
<path d="M898.649 371.2L847.389 414.62V530.92H676.709V414.62L625.459 371.2L664.779 322.2C676.709 311.83 694.869 310.2 708.049 310.2H820.879C847.349 310.2 854.049 315.2 860.879 320.6L898.649 371.2Z" fill="white" stroke="#070707" stroke-width="6" stroke-linecap="round" stroke-linejoin="round"/>
<path d="M676.709 414.62V373.47" stroke="#070707" stroke-width="6" stroke-linecap="round" stroke-linejoin="round"/>
<path d="M847.35 415.01V373.86" stroke="#070707" stroke-width="6" stroke-linecap="round" stroke-linejoin="round"/>
<path d="M762.05 348.12V530.92" stroke="#070707" stroke-width="6" stroke-linecap="round" stroke-linejoin="round"/>
<path d="M815.06 310.24H776.629C776.27 310.24 775.919 310.352 775.625 310.559C775.331 310.767 775.109 311.061 774.989 311.4L762.049 348.14L748.44 311.73C748.277 311.299 747.987 310.927 747.609 310.665C747.23 310.402 746.78 310.261 746.32 310.26H708.439L726.849 294.59C730.968 291.083 736.2 289.158 741.609 289.16H781.889C787.302 289.156 792.538 291.081 796.659 294.59L815.06 310.24Z" fill="white" stroke="#070707" stroke-width="6" stroke-linecap="round" stroke-linejoin="round"/>
<path d="M734.77 294.68L747.88 310.24L732.88 331.66L708.42 310.24L727.58 294.07C728.091 293.636 728.683 293.308 729.322 293.104C729.961 292.9 730.634 292.824 731.302 292.881C731.97 292.937 732.62 293.126 733.215 293.434C733.811 293.743 734.339 294.166 734.77 294.68Z" fill="white" stroke="#070707" stroke-width="6" stroke-linecap="round" stroke-linejoin="round"/>
<path d="M788.74 294.68L775.62 310.24L790.62 331.66L815.08 310.24L795.92 294.07C795.408 293.638 794.817 293.311 794.179 293.108C793.542 292.905 792.87 292.829 792.203 292.886C791.536 292.942 790.887 293.13 790.293 293.438C789.698 293.746 789.171 294.168 788.74 294.68V294.68Z" fill="white" stroke="#070707" stroke-width="6" stroke-linecap="round" stroke-linejoin="round"/>
<path d="M787.7 376.78H821.7V409.03C821.7 410.709 821.033 412.319 819.846 413.506C818.659 414.693 817.048 415.36 815.37 415.36H794.03C792.351 415.36 790.741 414.693 789.554 413.506C788.367 412.319 787.7 410.709 787.7 409.03V376.78V376.78Z" fill="white" stroke="#070707" stroke-width="6" stroke-linecap="round" stroke-linejoin="round"/>
<path d="M751.609 365.66C753.89 365.66 755.74 363.811 755.74 361.53C755.74 359.249 753.89 357.4 751.609 357.4C749.329 357.4 747.479 359.249 747.479 361.53C747.479 363.811 749.329 365.66 751.609 365.66Z" fill="#1C0E0C"/>
<path d="M751.609 397.27C753.89 397.27 755.74 395.421 755.74 393.14C755.74 390.859 753.89 389.01 751.609 389.01C749.329 389.01 747.479 390.859 747.479 393.14C747.479 395.421 749.329 397.27 751.609 397.27Z" fill="#1C0E0C"/>
<path d="M751.609 428.88C753.89 428.88 755.74 427.031 755.74 424.75C755.74 422.469 753.89 420.62 751.609 420.62C749.329 420.62 747.479 422.469 747.479 424.75C747.479 427.031 749.329 428.88 751.609 428.88Z" fill="#1C0E0C"/>
<path d="M751.609 460.49C753.89 460.49 755.74 458.641 755.74 456.36C755.74 454.079 753.89 452.23 751.609 452.23C749.329 452.23 747.479 454.079 747.479 456.36C747.479 458.641 749.329 460.49 751.609 460.49Z" fill="#1C0E0C"/>
<path d="M751.609 492.1C753.89 492.1 755.74 490.251 755.74 487.97C755.74 485.689 753.89 483.84 751.609 483.84C749.329 483.84 747.479 485.689 747.479 487.97C747.479 490.251 749.329 492.1 751.609 492.1Z" fill="#1C0E0C"/>
<path d="M882.709 274.63C905.408 274.63 923.809 256.229 923.809 233.53C923.809 210.831 905.408 192.43 882.709 192.43C860.011 192.43 841.609 210.831 841.609 233.53C841.609 256.229 860.011 274.63 882.709 274.63Z" fill="white" stroke="#070707" stroke-width="6" stroke-linecap="round" stroke-linejoin="round"/>
<path d="M872.15 215.14C866.88 215.14 863.33 219.22 863.33 225.27C863.33 231.72 866.57 235.58 871.99 235.58C877.41 235.58 880.729 231.58 880.729 225.06C880.699 218.96 877.42 215.14 872.15 215.14ZM872.08 231.75C868.46 231.75 867.92 227.65 867.92 225.22C867.92 221.22 869.4 218.97 872.08 218.97C875.49 218.97 876.2 222.31 876.2 225.13C876.15 229.54 874.78 231.77 872.05 231.77L872.08 231.75Z" fill="#1C0E0C"/>
<path d="M894.56 229.73C889.38 229.73 885.75 233.9 885.75 239.86C885.75 246.22 889.07 250.16 894.41 250.16C899.75 250.16 903.15 246.16 903.15 239.64C903.15 233.53 899.86 229.73 894.56 229.73ZM894.5 246.33C890.88 246.33 890.339 242.24 890.339 239.81C890.339 235.81 891.86 233.55 894.5 233.55C897.91 233.55 898.609 236.9 898.609 239.71C898.609 243.92 897.15 246.33 894.5 246.33V246.33Z" fill="#1C0E0C"/>
<path d="M897.02 215.62L874.06 249.79H869.479L892.42 215.62H897.02Z" fill="#1C0E0C"/>
<path d="M1510.96 383.84H1309.06C1299.33 383.84 1291.45 391.724 1291.45 401.45V603.35C1291.45 613.076 1299.33 620.96 1309.06 620.96H1510.96C1520.69 620.96 1528.57 613.076 1528.57 603.35V401.45C1528.57 391.724 1520.69 383.84 1510.96 383.84Z" fill="#1C0E0C"/>
<path d="M1501.1 373.86H1299.2C1289.47 373.86 1281.59 381.744 1281.59 391.47V593.37C1281.59 603.096 1289.47 610.98 1299.2 610.98H1501.1C1510.83 610.98 1518.71 603.096 1518.71 593.37V391.47C1518.71 381.744 1510.83 373.86 1501.1 373.86Z" fill="#88D0F0" stroke="black" stroke-width="6" stroke-linecap="round" stroke-linejoin="round"/>
<path d="M1465.22 465.04H1357.1C1353.43 465.04 1350.46 468.013 1350.46 471.68V565.75C1350.46 569.417 1353.43 572.39 1357.1 572.39H1465.22C1468.89 572.39 1471.86 569.417 1471.86 565.75V471.68C1471.86 468.013 1468.89 465.04 1465.22 465.04Z" fill="white"/>
<path d="M1471.99 467.5V561.24C1471.99 562.703 1471.7 564.152 1471.14 565.505C1470.59 566.857 1469.76 568.085 1468.73 569.12C1467.7 570.155 1466.47 570.975 1465.11 571.535C1463.76 572.094 1462.31 572.381 1460.85 572.38H1433.85C1436.8 572.38 1439.64 571.206 1441.73 569.117C1443.82 567.028 1444.99 564.195 1444.99 561.24V467.5C1444.99 466.036 1444.7 464.586 1444.14 463.232C1443.59 461.879 1442.77 460.649 1441.73 459.613C1440.7 458.577 1439.47 457.754 1438.12 457.193C1436.76 456.631 1435.31 456.341 1433.85 456.34H1460.85C1462.31 456.341 1463.76 456.631 1465.12 457.193C1466.47 457.754 1467.7 458.577 1468.73 459.613C1469.77 460.649 1470.59 461.879 1471.14 463.232C1471.7 464.586 1471.99 466.036 1471.99 467.5V467.5Z" stroke="#070707" stroke-width="6" stroke-linecap="round" stroke-linejoin="round"/>
<path d="M1445.02 467.5V561.24C1445.02 564.195 1443.85 567.028 1441.76 569.117C1439.67 571.206 1436.83 572.38 1433.88 572.38H1348.88C1347.42 572.381 1345.97 572.094 1344.61 571.535C1343.26 570.976 1342.03 570.155 1341 569.121C1339.96 568.086 1339.14 566.858 1338.58 565.505C1338.02 564.153 1337.73 562.704 1337.73 561.24V467.5C1337.73 464.542 1338.9 461.705 1340.99 459.612C1343.09 457.52 1345.92 456.343 1348.88 456.34H1433.88C1435.34 456.341 1436.79 456.631 1438.15 457.193C1439.5 457.754 1440.73 458.577 1441.76 459.613C1442.8 460.649 1443.62 461.879 1444.17 463.232C1444.73 464.586 1445.02 466.036 1445.02 467.5V467.5Z" stroke="#070707" stroke-width="6" stroke-linecap="round" stroke-linejoin="round"/>
<path d="M1393.09 577.6V447.95" stroke="#070707" stroke-width="6" stroke-linecap="round" stroke-linejoin="round"/>
<path d="M1333.05 514.08H1476.04" stroke="#070707" stroke-width="6" stroke-linecap="round" stroke-linejoin="round"/>
<path d="M1410.48 419.14H1419.01C1423.62 419.14 1428.05 420.972 1431.31 424.233C1434.57 427.495 1436.4 431.918 1436.4 436.53V439C1436.4 443.612 1434.57 448.035 1431.31 451.297C1428.05 454.558 1423.62 456.39 1419.01 456.39H1393.09V436.49C1393.1 431.885 1394.94 427.472 1398.2 424.219C1401.46 420.967 1405.87 419.14 1410.48 419.14V419.14Z" stroke="#070707" stroke-width="6" stroke-linecap="round" stroke-linejoin="round"/>
<path d="M1392.89 456.35H1369.23C1365.59 456.35 1362.1 454.903 1359.52 452.329C1356.95 449.754 1355.5 446.261 1355.5 442.62V440.67C1355.5 437.029 1356.95 433.536 1359.52 430.961C1362.1 428.387 1365.59 426.94 1369.23 426.94H1379.17C1382.81 426.94 1386.3 428.387 1388.88 430.961C1391.45 433.536 1392.9 437.029 1392.9 440.67V456.35H1392.89Z" stroke="#070707" stroke-width="6" stroke-linecap="round" stroke-linejoin="round"/>
<path d="M1414.74 480.11L1392.89 456.34L1379.52 469.72" stroke="#070707" stroke-width="6" stroke-linecap="round" stroke-linejoin="round"/>
<path d="M1622.68 752.08H1458.26V788.33H1622.68V752.08Z" fill="#1C0E0C"/>
</svg>
