<svg width="237" height="119" viewBox="0 0 237 119" fill="none" xmlns="http://www.w3.org/2000/svg">
<path d="M48.3429 13.58H5.11022C2.84021 13.58 1 15.4202 1 17.6902V73.2841C1 75.5541 2.84021 77.3944 5.11022 77.3944H48.3429C50.6129 77.3944 52.4531 75.5541 52.4531 73.2841V17.6902C52.4531 15.4202 50.6129 13.58 48.3429 13.58Z" fill="#F9E451" stroke="black" stroke-linecap="round" stroke-linejoin="round"/>
<path d="M36.3772 13.58H31.3762V77.4533H36.3772V13.58Z" fill="#1C0E0C"/>
<path d="M188.657 107.212H231.89C234.16 107.212 236 105.372 236 103.102V61.0147C236 58.7447 234.16 56.9045 231.89 56.9045L188.657 56.9045C186.387 56.9045 184.547 58.7447 184.547 61.0147V103.102C184.547 105.372 186.387 107.212 188.657 107.212Z" fill="#88D0F0" stroke="black" stroke-linecap="round" stroke-linejoin="round"/>
<path d="M200.623 107.258H205.624V56.9045H200.623V107.258Z" fill="#1C0E0C"/>
<path d="M196.218 1H40.4229C38.0996 1 36.2163 2.88334 36.2163 5.20655V113.75C36.2163 116.073 38.0996 117.956 40.4229 117.956H196.218C198.541 117.956 200.425 116.073 200.425 113.75V5.20655C200.425 2.88334 198.541 1 196.218 1Z" fill="white" stroke="#070707" stroke-linecap="round" stroke-linejoin="round"/>
<path d="M36.2163 10.7322H200.425" stroke="#070707" stroke-linecap="round" stroke-linejoin="round"/>
<path d="M60.659 5.0083H59.8272C59.1707 5.0083 58.6384 5.54052 58.6384 6.19706V7.02885C58.6384 7.68538 59.1707 8.2176 59.8272 8.2176H60.659C61.3155 8.2176 61.8477 7.68538 61.8477 7.02885V6.19706C61.8477 5.54052 61.3155 5.0083 60.659 5.0083Z" fill="#FFEFF0"/>
<path d="M55.1841 5.0083H54.3523C53.6958 5.0083 53.1636 5.54052 53.1636 6.19706V7.02885C53.1636 7.68538 53.6958 8.2176 54.3523 8.2176H55.1841C55.8407 8.2176 56.3729 7.68538 56.3729 7.02885V6.19706C56.3729 5.54052 55.8407 5.0083 55.1841 5.0083Z" fill="#FFEFF0"/>
<path d="M49.7098 5.0083H48.878C48.2214 5.0083 47.6892 5.54052 47.6892 6.19706V7.02885C47.6892 7.68538 48.2214 8.2176 48.878 8.2176H49.7098C50.3663 8.2176 50.8985 7.68538 50.8985 7.02885V6.19706C50.8985 5.54052 50.3663 5.0083 49.7098 5.0083Z" fill="#FFEFF0"/>
<path d="M59.9969 4.41895H59.1651C58.5085 4.41895 57.9763 4.95117 57.9763 5.6077V6.43949C57.9763 7.09602 58.5085 7.62825 59.1651 7.62825H59.9969C60.6534 7.62825 61.1856 7.09602 61.1856 6.43949V5.6077C61.1856 4.95117 60.6534 4.41895 59.9969 4.41895Z" fill="#88D0F0" stroke="black" stroke-linecap="round" stroke-linejoin="round"/>
<path d="M54.5225 4.41895H53.6907C53.0342 4.41895 52.502 4.95117 52.502 5.6077V6.43949C52.502 7.09602 53.0342 7.62825 53.6907 7.62825H54.5225C55.179 7.62825 55.7113 7.09602 55.7113 6.43949V5.6077C55.7113 4.95117 55.179 4.41895 54.5225 4.41895Z" fill="#F9E451" stroke="black" stroke-linecap="round" stroke-linejoin="round"/>
<path d="M49.0467 4.41895H48.2149C47.5583 4.41895 47.0261 4.95117 47.0261 5.6077V6.43949C47.0261 7.09602 47.5583 7.62825 48.2149 7.62825H49.0467C49.7032 7.62825 50.2354 7.09602 50.2354 6.43949V5.6077C50.2354 4.95117 49.7032 4.41895 49.0467 4.41895Z" fill="#F46F40" stroke="black" stroke-linecap="round" stroke-linejoin="round"/>
<path d="M171.089 83.6373H67.4944C66.3922 83.6373 65.4988 84.5308 65.4988 85.6329V103.067C65.4988 104.169 66.3922 105.062 67.4944 105.062H171.089C172.191 105.062 173.084 104.169 173.084 103.067V85.6329C173.084 84.5308 172.191 83.6373 171.089 83.6373Z" stroke="#070707" stroke-linecap="round" stroke-linejoin="round"/>
<path d="M154.506 89.5901H142.088V99.1817H154.506V89.5901Z" fill="#F9E451" stroke="black" stroke-linecap="round" stroke-linejoin="round"/>
<path d="M159.764 99.183H154.506V91.9882H157.135L159.764 95.7969V99.183Z" fill="white" stroke="#070707" stroke-linecap="round" stroke-linejoin="round"/>
<path d="M155.458 93.3196H156.8L158.143 95.2642H155.458V93.3196Z" fill="white" stroke="#070707" stroke-linecap="round" stroke-linejoin="round"/>
<path d="M145.751 100.624C146.495 100.624 147.099 100.021 147.099 99.2759C147.099 98.5311 146.495 97.9274 145.751 97.9274C145.006 97.9274 144.402 98.5311 144.402 99.2759C144.402 100.021 145.006 100.624 145.751 100.624Z" fill="white" stroke="#070707" stroke-linecap="round" stroke-linejoin="round"/>
<path d="M157.117 100.624C157.862 100.624 158.466 100.021 158.466 99.2759C158.466 98.5311 157.862 97.9274 157.117 97.9274C156.372 97.9274 155.769 98.5311 155.769 99.2759C155.769 100.021 156.372 100.624 157.117 100.624Z" fill="white" stroke="#070707" stroke-linecap="round" stroke-linejoin="round"/>
<path d="M152.013 91.9882H148.052" stroke="#070707" stroke-linecap="round" stroke-linejoin="round"/>
<path d="M150.584 93.6256H146.625" stroke="#070707" stroke-linecap="round" stroke-linejoin="round"/>
<path d="M152.013 95.2643H148.052" stroke="#070707" stroke-linecap="round" stroke-linejoin="round"/>
<path d="M130.595 100.607C133.676 100.607 136.173 98.1102 136.173 95.0297C136.173 91.9491 133.676 89.4519 130.595 89.4519C127.515 89.4519 125.017 91.9491 125.017 95.0297C125.017 98.1102 127.515 100.607 130.595 100.607Z" fill="white" stroke="#070707" stroke-linecap="round" stroke-linejoin="round"/>
<path d="M130.619 89.469V100.624" stroke="#070707" stroke-linecap="round" stroke-linejoin="round"/>
<path d="M131.605 89.5029C131.605 89.5029 135.323 93.8171 131.605 100.59V89.5029Z" fill="white"/>
<path d="M131.605 89.5029C131.605 89.5029 135.323 93.8171 131.605 100.59" stroke="#070707" stroke-linecap="round" stroke-linejoin="round"/>
<path d="M129.632 89.5029C129.632 89.5029 125.914 93.8171 129.632 100.59" stroke="#070707" stroke-linecap="round" stroke-linejoin="round"/>
<path d="M125.041 95.0466H136.197" stroke="#070707" stroke-linecap="round" stroke-linejoin="round"/>
<path d="M127.146 99.4107C127.146 99.4107 130.521 97.3822 134.019 99.4107" stroke="#070707" stroke-linecap="round" stroke-linejoin="round"/>
<path d="M127.146 90.7075C127.146 90.7075 130.521 92.736 134.019 90.7075" stroke="#070707" stroke-linecap="round" stroke-linejoin="round"/>
<path d="M114.44 97.7698C116.698 97.7698 118.528 96.0295 118.528 93.8828C118.528 91.7361 116.698 89.9958 114.44 89.9958C112.182 89.9958 110.351 91.7361 110.351 93.8828C110.351 96.0295 112.182 97.7698 114.44 97.7698Z" fill="#FFEFF0"/>
<path d="M113.668 97.4615C115.992 97.4615 117.877 95.6705 117.877 93.4612C117.877 91.2519 115.992 89.4609 113.668 89.4609C111.343 89.4609 109.459 91.2519 109.459 93.4612C109.459 95.6705 111.343 97.4615 113.668 97.4615Z" fill="#F9E451" stroke="black" stroke-linecap="round" stroke-linejoin="round"/>
<path d="M115.772 91.46C116.047 91.7156 116.267 92.0252 116.417 92.3694C116.567 92.7137 116.644 93.0852 116.644 93.4607C116.644 93.8362 116.567 94.2077 116.417 94.5519C116.267 94.8962 116.047 95.2058 115.772 95.4614" stroke="#070707" stroke-linecap="round" stroke-linejoin="round"/>
<path d="M116.639 97.6905L119.246 100.433C119.358 100.548 119.509 100.616 119.669 100.624C119.829 100.631 119.987 100.578 120.109 100.475C120.168 100.425 120.216 100.364 120.251 100.295C120.285 100.226 120.305 100.15 120.309 100.073C120.313 99.9962 120.302 99.9191 120.275 99.8467C120.249 99.7743 120.208 99.7081 120.154 99.6521L117.548 96.9108C117.436 96.7961 117.285 96.7279 117.125 96.7199C116.965 96.7119 116.807 96.7647 116.685 96.8678C116.626 96.9176 116.577 96.9789 116.543 97.0479C116.509 97.117 116.489 97.1923 116.485 97.2694C116.48 97.3464 116.492 97.4235 116.518 97.4959C116.545 97.5683 116.586 97.6345 116.639 97.6905Z" fill="#F9E451" stroke="black" stroke-linecap="round" stroke-linejoin="round"/>
<path d="M102.994 91.1245H95.0955C94.6799 91.1245 94.343 91.4614 94.343 91.877V99.7756C94.343 100.191 94.6799 100.528 95.0955 100.528H102.994C103.41 100.528 103.747 100.191 103.747 99.7756V91.877C103.747 91.4614 103.41 91.1245 102.994 91.1245Z" fill="#88D0F0" stroke="black" stroke-linecap="round" stroke-linejoin="round"/>
<path d="M100.808 91.1245H93.6143C93.1987 91.1245 92.8618 91.4614 92.8618 91.877V99.7756C92.8618 100.191 93.1987 100.528 93.6143 100.528H100.808C101.224 100.528 101.56 100.191 101.56 99.7756V91.877C101.56 91.4614 101.224 91.1245 100.808 91.1245Z" fill="#88D0F0" stroke="black" stroke-linecap="round" stroke-linejoin="round"/>
<path d="M97.3525 101.039V90.5331" stroke="#070707" stroke-linecap="round" stroke-linejoin="round"/>
<path d="M92.3997 95.8037H104.164" stroke="#070707" stroke-linecap="round" stroke-linejoin="round"/>
<path d="M98.7611 88.1068H99.4524C99.826 88.1068 100.184 88.2552 100.448 88.5194C100.713 88.7835 100.861 89.1418 100.861 89.5154V89.7149C100.861 90.0884 100.713 90.4467 100.448 90.7109C100.184 90.9751 99.826 91.1235 99.4524 91.1235H97.3525V89.5211C97.3525 89.1475 97.501 88.7892 97.7651 88.525C98.0293 88.2609 98.3876 88.1125 98.7611 88.1125V88.1068Z" stroke="#070707" stroke-linecap="round" stroke-linejoin="round"/>
<path d="M97.3369 91.1257H95.4184C95.1232 91.1257 94.8402 91.0085 94.6315 90.7998C94.4228 90.5911 94.3056 90.308 94.3056 90.0129V89.8554C94.3056 89.5602 94.4228 89.2772 94.6315 89.0685C94.8402 88.8598 95.1232 88.7425 95.4184 88.7425H96.2275C96.5226 88.7425 96.8057 88.8598 97.0144 89.0685C97.2231 89.2772 97.3403 89.5602 97.3403 89.8554V91.1257H97.3369Z" stroke="#070707" stroke-linecap="round" stroke-linejoin="round"/>
<path d="M99.1069 93.051L97.3368 91.1245L96.2534 92.209" stroke="#070707" stroke-linecap="round" stroke-linejoin="round"/>
<path d="M80.9957 88.0194H81.1703C81.4969 88.0194 81.8103 88.1492 82.0413 88.3802C82.2723 88.6112 82.4021 88.9245 82.4021 89.2512V90.9329H79.7639V89.2512C79.7639 88.9245 79.8937 88.6112 80.1247 88.3802C80.3557 88.1492 80.669 88.0194 80.9957 88.0194V88.0194Z" stroke="#070707" stroke-linecap="round" stroke-linejoin="round"/>
<path d="M80.0676 88.0194H80.2421C80.5688 88.0194 80.8821 88.1492 81.1131 88.3802C81.3442 88.6112 81.4739 88.9245 81.4739 89.2512V90.9329H78.8369V89.2512C78.8369 88.9245 78.9667 88.6112 79.1977 88.3802C79.4287 88.1492 79.742 88.0194 80.0687 88.0194H80.0676Z" stroke="#070707" stroke-linecap="round" stroke-linejoin="round"/>
<path d="M85.1285 100.624H82.2795L83.4672 90.9274H83.9409L85.1285 100.624Z" fill="#1C0E0C"/>
<path d="M83.4674 90.9274L82.2798 100.624H75.5144L76.7009 90.9274H83.4674Z" fill="#F9E451" stroke="black" stroke-linecap="round" stroke-linejoin="round"/>
<path d="M138.267 44.1578H115.387C114.285 44.1578 113.391 45.0513 113.391 46.1535V69.0334C113.391 70.1355 114.285 71.029 115.387 71.029H138.267C139.369 71.029 140.262 70.1355 140.262 69.0334V46.1535C140.262 45.0513 139.369 44.1578 138.267 44.1578Z" fill="#1C0E0C"/>
<path d="M137.151 43.0269H114.271C113.169 43.0269 112.275 43.9203 112.275 45.0225V67.9024C112.275 69.0045 113.169 69.898 114.271 69.898H137.151C138.253 69.898 139.146 69.0045 139.146 67.9024V45.0225C139.146 43.9203 138.253 43.0269 137.151 43.0269Z" fill="white" stroke="#070707" stroke-linecap="round" stroke-linejoin="round"/>
<path d="M130.468 66.9698H122.821C122.098 66.9698 121.385 66.8067 120.734 66.4928C120.084 66.1788 119.512 65.722 119.062 65.1564C118.613 64.5909 118.297 63.9311 118.137 63.2264C117.978 62.5216 117.98 61.79 118.143 61.0861L119.684 55.633C119.737 55.4022 119.867 55.1963 120.052 55.0488C120.237 54.9013 120.467 54.8208 120.704 54.8204H132.585C132.822 54.8206 133.051 54.901 133.237 55.0486C133.422 55.1961 133.552 55.4021 133.605 55.633L135.147 61.0861C135.31 61.7901 135.311 62.5217 135.152 63.2265C134.993 63.9312 134.676 64.5909 134.226 65.1565C133.777 65.722 133.205 66.1787 132.554 66.4927C131.904 66.8067 131.19 66.9697 130.468 66.9698Z" fill="#F9E451"/>
<path d="M129.544 66.1403H121.897C121.175 66.1402 120.462 65.9772 119.811 65.6632C119.16 65.3492 118.588 64.8925 118.139 64.327C117.689 63.7614 117.373 63.1017 117.213 62.397C117.054 61.6922 117.056 60.9606 117.218 60.2566L118.759 54.8035C118.813 54.573 118.943 54.3673 119.128 54.22C119.313 54.0727 119.543 53.9923 119.779 53.9921H131.658C131.894 53.9923 132.124 54.0727 132.309 54.22C132.494 54.3673 132.624 54.573 132.678 54.8035L134.22 60.2566C134.383 60.9603 134.384 61.6916 134.225 62.3961C134.066 63.1006 133.75 63.7602 133.301 64.3256C132.851 64.8911 132.28 65.3479 131.63 65.6621C130.979 65.9763 130.267 66.1397 129.544 66.1403Z" stroke="#070707" stroke-linecap="round" stroke-linejoin="round"/>
<path d="M130.35 53.0311C130.35 53.3547 130.326 53.6779 130.276 53.9978H121.165C121.116 53.6779 121.091 53.3547 121.092 53.0311C121.092 50.0462 123.164 47.6256 125.721 47.6256C128.277 47.6256 130.35 50.0405 130.35 53.0311Z" stroke="#070707" stroke-linecap="round" stroke-linejoin="round"/>
<path d="M132.425 54.323C132.269 57.8802 129.264 60.72 125.721 60.72C122.271 60.72 119.173 57.8813 119.017 54.323C119.115 54.2185 119.233 54.1352 119.365 54.0783C119.497 54.0214 119.638 53.9921 119.782 53.9921H131.66C131.804 53.9923 131.945 54.0217 132.077 54.0786C132.208 54.1355 132.327 54.2187 132.425 54.323V54.323Z" stroke="#070707" stroke-linecap="round" stroke-linejoin="round"/>
<path d="M126.182 59.6753H125.259V61.85H126.182V59.6753Z" stroke="#070707" stroke-linecap="round" stroke-linejoin="round"/>
<path d="M133.82 46.3281C135.46 46.3281 136.79 44.9983 136.79 43.3579C136.79 41.7175 135.46 40.3877 133.82 40.3877C132.18 40.3877 130.85 41.7175 130.85 43.3579C130.85 44.9983 132.18 46.3281 133.82 46.3281Z" fill="#88D0F0" stroke="black" stroke-linecap="round" stroke-linejoin="round"/>
<path d="M132.727 43.2718L133.701 44.6486L134.915 42.0671" stroke="#070707" stroke-linecap="round" stroke-linejoin="round"/>
<path d="M171.719 26.2393H113.918C113.011 26.2393 112.275 26.9749 112.275 27.8824V36.4406C112.275 37.3481 113.011 38.0838 113.918 38.0838H171.719C172.626 38.0838 173.362 37.3481 173.362 36.4406V27.8824C173.362 26.9749 172.626 26.2393 171.719 26.2393Z" stroke="#070707" stroke-linecap="round" stroke-linejoin="round"/>
<path d="M130.227 36.078H121.819C121.819 36.078 119.52 32.3837 118.735 32.3837C118.281 32.3837 118.095 36.078 118.095 36.078H117.572C117.572 36.078 116.348 28.5352 117.704 28.1035C118.588 27.8213 120.982 28.5692 121.64 31.5315C122.194 34.0246 125.388 34.4711 125.742 32.8256C125.745 32.8256 130.077 34.1062 130.227 36.078Z" fill="white" stroke="#070707" stroke-linecap="round" stroke-linejoin="round"/>
<path d="M151.789 34.2671C151.774 34.4416 151.458 35.2779 151.458 35.2779L135.305 34.7306V33.824C135.323 32.6529 135.591 31.4992 136.091 30.4402C136.51 29.5653 137.092 29.7829 137.092 29.7829C137.092 29.7829 138.672 31.3275 140.444 31.3275C140.599 31.3262 140.75 31.2845 140.884 31.2066C141.017 31.1287 141.128 31.0172 141.205 30.8832C141.31 30.72 141.391 30.5431 141.447 30.3574C141.521 30.1161 141.573 29.8684 141.602 29.6174C141.616 29.5114 141.654 29.4101 141.715 29.3222C141.776 29.2343 141.857 29.1624 141.952 29.1125C142.047 29.0626 142.152 29.0362 142.259 29.0355C142.366 29.0349 142.471 29.0599 142.566 29.1086C143.262 29.4656 144.108 30.2668 146.368 31.4884L146.72 31.6754C149.47 33.1259 151.76 32.5876 151.789 34.2671Z" fill="white" stroke="#070707" stroke-linecap="round" stroke-linejoin="round"/>
<path d="M149.972 36.078C150.44 36.078 151.011 35.8661 151.317 35.5227C151.508 35.2989 151.645 35.0345 151.718 34.7497C151.79 34.4649 151.797 34.1672 151.737 33.8795H151.724C151.66 34.2223 151.479 34.5324 151.213 34.7581C150.947 34.9838 150.612 35.1113 150.263 35.1193L136.256 34.709C136.04 34.7022 135.833 34.6288 135.661 34.4989C135.489 34.369 135.362 34.189 135.297 33.9838V34.9255C135.297 35.5612 135.759 36.078 136.329 36.078H149.972Z" fill="#F9E451" stroke="black" stroke-linecap="round" stroke-linejoin="round"/>
<path d="M146.977 31.8136C143.477 30.6169 141.727 30.0752 141.44 30.3619C141.515 30.1206 141.567 29.8729 141.595 29.6219C141.609 29.5159 141.648 29.4146 141.709 29.3267C141.769 29.2389 141.851 29.1669 141.945 29.117C142.04 29.0671 142.145 29.0407 142.252 29.0401C142.359 29.0394 142.464 29.0644 142.56 29.1131C143.258 29.4701 144.421 30.5342 146.977 31.8136Z" fill="#F9E451" stroke="black" stroke-linecap="round" stroke-linejoin="round"/>
<path d="M143.16 30.2385L143.795 29.273C143.832 29.2165 143.88 29.1681 143.936 29.1309C143.993 29.0936 144.056 29.0682 144.123 29.0562C144.189 29.0442 144.257 29.0459 144.323 29.0612C144.389 29.0764 144.451 29.1049 144.505 29.1449V29.1449C144.603 29.2164 144.671 29.3208 144.697 29.4388C144.724 29.5568 144.706 29.6803 144.648 29.7863L144.563 29.9404" stroke="#070707" stroke-linecap="round" stroke-linejoin="round"/>
<path d="M144.792 30.7393L145.257 30.0446C145.29 29.996 145.333 29.9547 145.383 29.9232C145.433 29.8918 145.489 29.8708 145.547 29.8615C145.606 29.8523 145.665 29.8551 145.722 29.8696C145.78 29.8841 145.833 29.9101 145.88 29.9461C145.965 30.0101 146.024 30.1033 146.045 30.2078C146.066 30.3123 146.047 30.4208 145.993 30.5127L145.826 30.8164" stroke="#070707" stroke-linecap="round" stroke-linejoin="round"/>
<path d="M147.134 31.4794C147.32 31.2278 147.275 30.9366 147.089 30.7994C147.039 30.7623 146.982 30.7358 146.921 30.7214C146.861 30.7069 146.798 30.705 146.736 30.7156C146.675 30.7262 146.616 30.7491 146.564 30.783C146.512 30.8169 146.467 30.861 146.432 30.9128L146.147 31.3785" stroke="#070707" stroke-linecap="round" stroke-linejoin="round"/>
<path d="M168.007 28.78C169.411 28.78 170.548 27.6425 170.548 26.2393C170.548 24.8361 169.411 23.6986 168.007 23.6986C166.604 23.6986 165.467 24.8361 165.467 26.2393C165.467 27.6425 166.604 28.78 168.007 28.78Z" fill="#F46F40" stroke="black" stroke-linecap="round" stroke-linejoin="round"/>
<path d="M167.172 27.1062L168.843 25.3723" stroke="#070707" stroke-linecap="round" stroke-linejoin="round"/>
<path d="M168.843 27.1062L167.172 25.3723" stroke="#070707" stroke-linecap="round" stroke-linejoin="round"/>
<path d="M156.65 32.0267C156.65 32.0267 154.843 36.078 157.47 36.078H169.696C169.696 36.078 170.188 34.0937 167.012 33.5849C166.571 33.5147 165.312 33.2722 165.312 33.2722C165.312 33.2722 165.705 34.8587 162.911 34.734C160.118 34.6094 158.852 32.2262 156.65 32.0267Z" fill="white" stroke="#070707" stroke-linecap="round" stroke-linejoin="round"/>
<path d="M108.27 28.0479H69.2817C68.1796 28.0479 67.2861 28.9413 67.2861 30.0435V69.0322C67.2861 70.1344 68.1796 71.0278 69.2817 71.0278H108.27C109.373 71.0278 110.266 70.1344 110.266 69.0322V30.0435C110.266 28.9413 109.373 28.0479 108.27 28.0479Z" fill="#1C0E0C"/>
<path d="M106.483 26.2393H67.4944C66.3922 26.2393 65.4988 27.1327 65.4988 28.2349V67.2236C65.4988 68.3258 66.3922 69.2192 67.4944 69.2192H106.483C107.585 69.2192 108.479 68.3258 108.479 67.2236V28.2349C108.479 27.1327 107.585 26.2393 106.483 26.2393Z" fill="#F9E451" stroke="black" stroke-linecap="round" stroke-linejoin="round"/>
<path d="M102.978 43.6094L97.2712 48.4426V61.3875H78.2738V48.4426L72.5691 43.6094L76.9434 38.1597C78.2704 37.0049 80.292 36.8236 81.7584 36.8236H94.3169C97.2633 36.8236 98.0101 37.3789 98.775 37.9806L102.978 43.6094Z" fill="#1C0E0C"/>
<path d="M102.498 42.7254L96.6888 47.6459V60.8254H77.3469V47.6459L71.5391 42.7254L75.9949 37.1726C77.3469 35.9975 79.4048 35.8127 80.8984 35.8127H93.6846C96.6843 35.8127 97.4435 36.3794 98.2175 36.9913L102.498 42.7254Z" fill="white" stroke="#070707" stroke-linecap="round" stroke-linejoin="round"/>
<path d="M77.3469 47.6459V42.9827" stroke="#070707" stroke-linecap="round" stroke-linejoin="round"/>
<path d="M96.6841 47.6902V43.027" stroke="#070707" stroke-linecap="round" stroke-linejoin="round"/>
<path d="M87.0178 40.11V60.8254" stroke="#070707" stroke-linecap="round" stroke-linejoin="round"/>
<path d="M93.0249 35.8173H88.6699C88.6291 35.8173 88.5893 35.83 88.5561 35.8535C88.5228 35.8771 88.4976 35.9103 88.484 35.9488L87.0176 40.1123L85.4753 35.9862C85.4569 35.9373 85.4241 35.8952 85.3811 35.8654C85.3382 35.8357 85.2873 35.8197 85.2351 35.8196H80.9424L83.0287 34.0438C83.4953 33.6464 84.0883 33.4282 84.7013 33.4285H89.266C89.8793 33.428 90.4727 33.6462 90.9397 34.0438L93.0249 35.8173Z" fill="white" stroke="#070707" stroke-linecap="round" stroke-linejoin="round"/>
<path d="M83.9262 34.054L85.4119 35.8173L83.7121 38.2447L80.9402 35.8173L83.1114 33.9849C83.1694 33.9357 83.2365 33.8985 83.3089 33.8754C83.3813 33.8523 83.4575 33.8437 83.5332 33.8501C83.6089 33.8565 83.6826 33.8778 83.7501 33.9128C83.8175 33.9478 83.8774 33.9958 83.9262 34.054Z" fill="white" stroke="#070707" stroke-linecap="round" stroke-linejoin="round"/>
<path d="M90.0422 34.054L88.5554 35.8173L90.2553 38.2447L93.0272 35.8173L90.8559 33.9849C90.798 33.9359 90.7309 33.8989 90.6587 33.8759C90.5864 33.8528 90.5103 33.8443 90.4347 33.8507C90.3591 33.8571 90.2856 33.8784 90.2182 33.9133C90.1509 33.9482 90.0911 33.996 90.0422 34.054Z" fill="white" stroke="#070707" stroke-linecap="round" stroke-linejoin="round"/>
<path d="M89.9246 43.3579H93.7775V47.0126C93.7775 47.2028 93.702 47.3853 93.5674 47.5198C93.4329 47.6543 93.2504 47.7299 93.0602 47.7299H90.6419C90.4516 47.7299 90.2692 47.6543 90.1347 47.5198C90.0001 47.3853 89.9246 47.2028 89.9246 47.0126V43.3579Z" fill="white" stroke="#070707" stroke-linecap="round" stroke-linejoin="round"/>
<path d="M85.8347 42.0978C86.0932 42.0978 86.3027 41.8882 86.3027 41.6298C86.3027 41.3713 86.0932 41.1617 85.8347 41.1617C85.5762 41.1617 85.3667 41.3713 85.3667 41.6298C85.3667 41.8882 85.5762 42.0978 85.8347 42.0978Z" fill="#1C0E0C"/>
<path d="M85.8347 45.6798C86.0932 45.6798 86.3027 45.4703 86.3027 45.2118C86.3027 44.9533 86.0932 44.7438 85.8347 44.7438C85.5762 44.7438 85.3667 44.9533 85.3667 45.2118C85.3667 45.4703 85.5762 45.6798 85.8347 45.6798Z" fill="#1C0E0C"/>
<path d="M85.8347 49.262C86.0932 49.262 86.3027 49.0524 86.3027 48.794C86.3027 48.5355 86.0932 48.3259 85.8347 48.3259C85.5762 48.3259 85.3667 48.5355 85.3667 48.794C85.3667 49.0524 85.5762 49.262 85.8347 49.262Z" fill="#1C0E0C"/>
<path d="M85.8347 52.8441C86.0932 52.8441 86.3027 52.6346 86.3027 52.3761C86.3027 52.1176 86.0932 51.9081 85.8347 51.9081C85.5762 51.9081 85.3667 52.1176 85.3667 52.3761C85.3667 52.6346 85.5762 52.8441 85.8347 52.8441Z" fill="#1C0E0C"/>
<path d="M85.8347 56.4263C86.0932 56.4263 86.3027 56.2167 86.3027 55.9583C86.3027 55.6998 86.0932 55.4902 85.8347 55.4902C85.5762 55.4902 85.3667 55.6998 85.3667 55.9583C85.3667 56.2167 85.5762 56.4263 85.8347 56.4263Z" fill="#1C0E0C"/>
<path d="M100.691 31.7819C103.264 31.7819 105.349 29.6967 105.349 27.1244C105.349 24.5521 103.264 22.4668 100.691 22.4668C98.119 22.4668 96.0337 24.5521 96.0337 27.1244C96.0337 29.6967 98.119 31.7819 100.691 31.7819Z" fill="white" stroke="#070707" stroke-linecap="round" stroke-linejoin="round"/>
<path d="M99.4946 25.0404C98.8974 25.0404 98.4951 25.5028 98.4951 26.1884C98.4951 26.9193 98.8623 27.3567 99.4765 27.3567C100.091 27.3567 100.467 26.9034 100.467 26.1646C100.464 25.4733 100.092 25.0404 99.4946 25.0404ZM99.4867 26.9227C99.0765 26.9227 99.0153 26.4581 99.0153 26.1827C99.0153 25.7294 99.183 25.4744 99.4867 25.4744C99.8731 25.4744 99.9536 25.8529 99.9536 26.1725C99.9479 26.6723 99.7927 26.925 99.4833 26.925L99.4867 26.9227Z" fill="#1C0E0C"/>
<path d="M102.034 26.6937C101.447 26.6937 101.036 27.1663 101.036 27.8417C101.036 28.5624 101.412 29.0089 102.017 29.0089C102.622 29.0089 103.008 28.5556 103.008 27.8168C103.008 27.1243 102.635 26.6937 102.034 26.6937ZM102.027 28.5749C101.617 28.5749 101.556 28.1114 101.556 27.836C101.556 27.3827 101.728 27.1266 102.027 27.1266C102.414 27.1266 102.493 27.5062 102.493 27.8247C102.493 28.3018 102.328 28.5749 102.027 28.5749Z" fill="#1C0E0C"/>
<path d="M102.313 25.0947L99.7112 28.967H99.1921L101.792 25.0947H102.313Z" fill="#1C0E0C"/>
<path d="M171.887 44.1578H149.007C147.904 44.1578 147.011 45.0513 147.011 46.1535V69.0334C147.011 70.1355 147.904 71.029 149.007 71.029H171.887C172.989 71.029 173.882 70.1355 173.882 69.0334V46.1535C173.882 45.0513 172.989 44.1578 171.887 44.1578Z" fill="#1C0E0C"/>
<path d="M170.769 43.0269H147.889C146.787 43.0269 145.894 43.9203 145.894 45.0225V67.9024C145.894 69.0045 146.787 69.898 147.889 69.898H170.769C171.871 69.898 172.765 69.0045 172.765 67.9024V45.0225C172.765 43.9203 171.871 43.0269 170.769 43.0269Z" fill="#88D0F0" stroke="black" stroke-linecap="round" stroke-linejoin="round"/>
<path d="M166.703 53.3596H154.451C154.035 53.3596 153.698 53.6965 153.698 54.1121V64.7724C153.698 65.1879 154.035 65.5248 154.451 65.5248H166.703C167.119 65.5248 167.456 65.1879 167.456 64.7724V54.1121C167.456 53.6965 167.119 53.3596 166.703 53.3596Z" fill="white"/>
<path d="M167.47 53.6385V64.2613C167.47 64.4272 167.438 64.5914 167.375 64.7446C167.311 64.8979 167.218 65.0371 167.101 65.1543C166.984 65.2716 166.844 65.3646 166.691 65.428C166.538 65.4914 166.374 65.5239 166.208 65.5238H163.148C163.483 65.5238 163.804 65.3908 164.041 65.154C164.278 64.9173 164.411 64.5962 164.411 64.2613V53.6385C164.411 53.4725 164.378 53.3082 164.315 53.1548C164.252 53.0015 164.159 52.8621 164.041 52.7447C163.924 52.6272 163.785 52.534 163.632 52.4704C163.478 52.4068 163.314 52.3739 163.148 52.3738H166.208C166.374 52.3739 166.538 52.4068 166.691 52.4704C166.845 52.534 166.984 52.6272 167.101 52.7447C167.218 52.8621 167.311 53.0015 167.375 53.1548C167.438 53.3082 167.47 53.4725 167.47 53.6385V53.6385Z" stroke="#070707" stroke-linecap="round" stroke-linejoin="round"/>
<path d="M164.414 53.6385V64.2613C164.414 64.5962 164.281 64.9173 164.044 65.154C163.808 65.3908 163.486 65.5238 163.152 65.5238H153.519C153.353 65.5239 153.189 65.4914 153.036 65.428C152.882 65.3646 152.743 65.2717 152.626 65.1544C152.508 65.0372 152.415 64.898 152.352 64.7447C152.288 64.5915 152.256 64.4272 152.256 64.2613V53.6385C152.256 53.3032 152.389 52.9817 152.626 52.7446C152.863 52.5075 153.184 52.3741 153.519 52.3738H163.152C163.318 52.3739 163.482 52.4068 163.635 52.4704C163.788 52.534 163.928 52.6272 164.045 52.7447C164.162 52.8621 164.255 53.0015 164.318 53.1548C164.382 53.3082 164.414 53.4725 164.414 53.6385V53.6385Z" stroke="#070707" stroke-linecap="round" stroke-linejoin="round"/>
<path d="M158.529 66.1153V51.423" stroke="#070707" stroke-linecap="round" stroke-linejoin="round"/>
<path d="M151.725 58.917H167.929" stroke="#070707" stroke-linecap="round" stroke-linejoin="round"/>
<path d="M160.5 48.1581H161.466C161.989 48.1581 162.49 48.3657 162.86 48.7353C163.229 49.1049 163.437 49.6061 163.437 50.1288V50.4087C163.437 50.9313 163.229 51.4326 162.86 51.8022C162.49 52.1717 161.989 52.3794 161.466 52.3794H158.529V50.1242C158.53 49.6024 158.738 49.1023 159.108 48.7337C159.477 48.3651 159.978 48.1581 160.5 48.1581V48.1581Z" stroke="#070707" stroke-linecap="round" stroke-linejoin="round"/>
<path d="M158.506 52.3749H155.825C155.412 52.3749 155.017 52.211 154.725 51.9192C154.433 51.6274 154.269 51.2316 154.269 50.8189V50.598C154.269 50.1853 154.433 49.7896 154.725 49.4978C155.017 49.206 155.412 49.042 155.825 49.042H156.951C157.364 49.042 157.76 49.206 158.052 49.4978C158.343 49.7896 158.507 50.1853 158.507 50.598V52.3749H158.506Z" stroke="#070707" stroke-linecap="round" stroke-linejoin="round"/>
<path d="M160.982 55.0675L158.506 52.3738L156.991 53.89" stroke="#070707" stroke-linecap="round" stroke-linejoin="round"/>
<path d="M184.547 85.8879H165.914V89.9959H184.547V85.8879Z" fill="#1C0E0C"/>
</svg>
