<svg width="20" height="22" viewBox="0 0 20 22" fill="none" xmlns="http://www.w3.org/2000/svg">
<path d="M16.0897 6.80532C16.0897 3.36503 13.3023 0.577637 9.86198 0.577637C6.42169 0.577637 3.63431 3.36503 3.63431 6.80532C3.63431 8.88456 4.65384 10.7277 6.2208 11.8578C6.21076 11.8628 6.20322 11.8653 6.1982 11.8678C5.07571 12.3424 4.06874 13.0229 3.20239 13.8918C2.34104 14.7516 1.65529 15.7708 1.18341 16.8926C0.719132 17.9912 0.468564 19.1682 0.445131 20.3606C0.444461 20.3874 0.449162 20.414 0.458957 20.439C0.468752 20.4639 0.483444 20.4867 0.502166 20.5059C0.520887 20.5251 0.543261 20.5403 0.567968 20.5507C0.592674 20.5611 0.619214 20.5665 0.646024 20.5665H2.15021C2.25819 20.5665 2.34859 20.4786 2.3511 20.3706C2.40133 18.432 3.17727 16.6164 4.55088 15.2403C5.96969 13.8165 7.85306 13.033 9.86198 13.033C13.3023 13.033 16.0897 10.2456 16.0897 6.80532ZM9.86198 11.1245C7.47638 11.1245 5.54279 9.19092 5.54279 6.80532C5.54279 4.41971 7.47638 2.48612 9.86198 2.48612C12.2476 2.48612 14.1812 4.41971 14.1812 6.80532C14.1812 9.19092 12.2476 11.1245 9.86198 11.1245ZM12.4987 16.6742H19.1282C19.2387 16.6742 19.3291 16.5838 19.3291 16.4733V15.067C19.3291 14.9565 19.2387 14.8661 19.1282 14.8661H14.696L15.8812 13.3569C15.9086 13.3217 15.9236 13.2785 15.9239 13.2339C15.9239 13.1234 15.8335 13.033 15.723 13.033H13.8999C13.7769 13.033 13.6614 13.0907 13.5835 13.1862L11.8634 15.3734C11.7529 15.514 11.6926 15.6898 11.6926 15.8706C11.6951 16.3151 12.0542 16.6742 12.4987 16.6742ZM18.5255 18.2813H11.896C11.7855 18.2813 11.6951 18.3717 11.6951 18.4822V19.8885C11.6951 19.999 11.7855 20.0894 11.896 20.0894H16.3282L15.143 21.5986C15.1156 21.6338 15.1006 21.677 15.1003 21.7216C15.1003 21.8321 15.1907 21.9225 15.3012 21.9225H17.1243C17.2473 21.9225 17.3628 21.8647 17.4407 21.7693L19.1608 19.5821C19.2713 19.4415 19.3316 19.2657 19.3316 19.0849C19.3291 18.6404 18.97 18.2813 18.5255 18.2813Z" fill="#FF6B72"/>
</svg>
